<svg viewBox="0 0 640 400" data-background-color="#ffffff" preserveAspectRatio="xMidYMid meet" height="400" width="640" xmlns="http://www.w3.org/2000/svg" xmlns:xlink="http://www.w3.org/1999/xlink"><rect width="640" height="400" x="0" y="0" opacity="1" fill="#ffffff" data-fill-palette-color="background" id="background"></rect><g id="tight-bounds" transform="matrix(1,0,0,1,160,20)"><svg viewBox="0 0 320 360" height="360" width="320"><g><svg></svg></g><g><svg viewBox="0 0 320 360" height="360" width="320"><g><path xmlns="http://www.w3.org/2000/svg" d="M219.58 41.008c0.707 0 6.365 2.829 9.547 3.89-1.061 0.354-3.536-0.707-6.365-1.768 0.707 0 2.122 0.354 3.536 1.06-0.707-0.707-6.011-2.475-6.718-3.182M166.895 30.047c1.061-0.354 13.436 1.414 19.094 1.768 0.354-0.354-0.707-0.354-2.122-0.707 1.768-0.354 5.304 0.707 7.779 1.06-7.425 0.354-15.558-1.768-22.629-1.06-2.475 0-0.707-0.707-2.122-1.061M156.641 30.047c6.365 0 11.315 0 2.121 0.707-1.061-0.354-2.475-0.354-2.121-0.707M256.707 59.395c0.707 0 3.536 3.182 4.95 4.243-0.354 0.354-3.182-2.475-4.596-3.536 0.354 0.354 0 0-0.354-0.707M249.635 54.798c-2.829-2.475-3.889-2.475-4.243-3.889 2.475 1.414 4.243 2.829 4.243 3.889M204.022 32.522c0.354-0.354 1.061 0.354 2.829 0.707-2.122-0.354-1.768 0-1.061 0.707-2.475-0.354-3.182-0.707-2.475-1.414 1.414 0.707 1.768 0.354 0.707 0M103.602 36.765c0-0.354 1.414-1.061 2.475-1.414-1.061 0.707-0.707 1.061 1.061 0.353 0 0.354-2.122 1.061-3.536 1.768 0.707-0.354 1.414-1.414 0-0.707M211.094 28.986c-1.061 0.354-4.95-1.768-8.84-2.475-2.122-0.707 8.486 1.768 8.84 2.475M2.475 203.66c2.122 8.84 0.707 8.486 0 0M2.829 150.621c0.354-1.414 0.707-5.304 1.06-4.95-1.061 8.486-2.829 12.376-3.182 18.74 1.061-5.657-0.354 3.182-0.707 5.304 0.354 2.829 0.354-1.768 1.061-1.06 0.707 1.061-1.414 15.912-0.707 7.779-0.707 7.425 0 15.558 1.414 17.679-1.768 11.315 7.072 36.773 8.84 42.077 0.354 0.354 0-1.768 0.707-0.353 0.707 4.597 3.889 7.779 4.95 12.729 1.061 1.414 5.304 9.193 6.011 10.962 1.414 2.829 2.122 2.475 3.536 5.303 4.243 8.133 10.961 15.912 17.326 23.337 20.508 24.044 51.978 43.845 86.984 50.918 35.006 7.425 71.779 2.122 100.419-11.669 1.768-1.061 1.414-1.414 3.536-2.122 9.901-3.182 21.923-13.436 28.641-17.326 3.182-3.536 11.669-9.547 12.73-13.082 6.011-4.95 12.022-13.083 15.204-18.387 1.768-2.829 3.182-2.829 3.889-4.597-0.354 0 5.657-7.425 7.426-11.668-0.707 0-1.768 2.122-1.768 0 12.729-24.398 19.801-57.282 15.911-79.912 0.707 27.934-6.365 59.05-19.801 78.851-6.011 12.729-18.387 26.519-29.701 36.42-1.768 1.768-3.536 3.889-5.658 5.304-6.718 5.657-14.144 10.254-21.922 14.497-18.387 10.254-38.895 19.094-62.94 19.447 41.37-3.536 78.497-24.398 99.006-49.856-15.558 15.204-22.276 21.215-39.602 30.055-1.414 2.475-13.083 7.425-20.862 9.547 4.597-2.122 14.144-5.657 17.326-8.486-25.812 12.376-54.453 19.448-81.326 15.558 10.254 0 24.751 0.354 38.541-2.121 2.122-0.707 3.182-1.414 5.658-1.768 26.873-6.011 52.685-19.094 71.072-37.481-10.608 9.547-26.519 20.862-36.774 24.398 9.547-5.304 26.873-15.558 32.53-23.337-11.315 11.315-32.53 22.63-45.966 27.58-2.122 0.354 1.414-1.414-2.122 0-4.243 1.061-2.475 1.061-3.536 1.768-16.265 4.597-35.006 8.486-50.563 7.072-2.829-0.354-3.889-1.061-6.365-1.061-2.829-0.354-5.304-0.354-8.486-0.354-12.376-1.414-25.812-6.365-35.713-10.607-5.304-2.475-10.608-4.243-15.912-7.426-4.243-2.475-7.779-5.304-11.314-8.132-13.436-9.901-24.751-19.801-35.36-33.945-19.094-26.519-28.994-59.757-27.58-92.641 1.414-32.884 14.497-65.061 35.359-88.752-1.061 1.061 1.414-2.475 3.536-4.596 0 0.707-0.354 1.768 2.122-0.707 2.122-2.475-0.707-0.707 0.353-2.122 21.923-24.044 60.111-43.492 99.36-44.199 1.414-1.061 3.889-2.475 6.718-1.768 0 0.354-1.768 0.354-1.768 0.354 3.889-0.354 7.425-0.354 9.193 0.353 0.354-0.354-1.414-0.707 0-0.707 2.475 0.707 3.182 0 4.597 0.707-1.061 0-2.122 0-2.829 0.354 8.84 0 14.497 2.122 23.337 2.829-4.597-1.061-5.657-1.061-9.193-2.122 3.889 0.707 5.657 1.414 7.425 1.061-0.707 0-0.354-1.061 0.354-0.707 7.072 1.768 7.779 2.475 15.204 4.95 0.707-0.707-3.182-1.061-4.243-2.122 7.072 2.475 13.436 4.243 17.68 7.072-1.414-1.061-5.657-2.475-8.84-3.889-0.354 0.354 1.061 0.707 1.414 1.414-3.536-1.768-8.486-3.536-13.436-4.243 4.243 1.061 7.072 2.475 8.84 3.182-3.889-0.707-8.84-3.182-14.498-4.243 9.193 2.829 26.519 9.193 37.127 14.851-3.889-2.475-8.486-4.243-10.961-5.657 2.122 0.354 4.597 1.768 4.597 1.06 2.475 1.061 5.657 3.536 7.425 3.89-3.182-2.122-9.547-5.304-11.668-6.365 26.519 12.022 50.21 32.177 65.414 57.989 1.414 2.475 3.536 8.133 5.304 8.84-0.354-1.768-1.768-2.829-3.182-5.657 0.707 0 0.707-1.061 0-2.122-1.414-1.768 0 1.414-1.415-0.354-6.365-11.669-14.144-21.923-26.165-33.237 6.718 6.365 1.768 1.768 0.353-0.354 9.193 8.133 19.801 21.923 24.398 28.995-0.707-1.061-1.061-1.768-0.707-1.768 8.486 14.497 13.79 27.58 19.094 46.32 0.354 0.354 0-1.414 0.707-0.353 3.536 14.851 4.597 27.227 4.243 38.541 2.829-19.094-3.536-48.796-14.851-72.133-1.414-2.829-1.414-0.707-2.829-3.889 0-1.061-1.061-3.182-1.768-4.597-14.144-23.337-31.47-39.956-51.978-53.038 1.414 0.707 4.243 2.829 4.244 2.475-38.188-25.105-82.387-28.641-118.807-20.862-2.475 1.061-3.536 2.122-6.365 3.536 5.304-1.768 8.486-2.122 13.437-3.183 1.061-1.061-4.597 0.354-2.122-0.707 0.354 0.354 4.95-0.707 6.011-0.353 0 0.354-1.414 0.707-1.768 1.06 11.669-2.475 23.691-2.829 33.945-2.121-6.011 0.354-16.972-0.707-20.508 1.061 3.536-0.354 8.486-0.707 11.668-0.354-4.243 0-12.022 0.354-15.558 0.707-0.354-0.354 5.657-1.061 1.768-1.06-1.768 0.354-4.597 0.354-5.657 1.414-30.409 2.829-60.111 18.74-80.973 37.481-4.243 3.536-9.193 7.425-12.375 11.314-7.779 8.84-12.729 17.68-18.387 25.459 3.536-7.425 11.315-18.74 20.508-28.287 9.193-9.547 19.094-17.68 24.398-21.923 0 1.414 8.486-5.304 11.669-7.425-2.122 1.768 1.414-0.707 2.121-0.354 11.315-6.718 20.508-9.193 30.763-13.083-2.475 0.707-4.597 1.414-4.951 1.061 2.475-0.707 3.889-1.414 3.536-1.768-9.901 2.829-25.459 9.547-37.834 16.972 22.276-15.204 50.564-24.398 78.497-24.751 27.934-0.707 55.16 6.365 76.729 17.68 14.497 6.365 28.287 18.033 39.249 29.348 3.182 2.829 0.707-0.707 5.304 4.243-1.414-0.707-2.475-1.414-0.707 0.707 2.829 3.182-0.707-2.475 3.889 3.182-0.354 0-1.768-1.768-1.768-1.061 12.376 10.961 21.923 30.762 27.58 43.846-1.414-5.304-4.95-12.729-7.779-18.033 8.486 15.558 11.315 24.751 14.851 38.541 1.414 1.061-0.707-4.95 0.707-2.121 0.354 2.122 0.707 8.84 2.122 9.9-1.061-6.718-2.829-14.851-4.243-16.265 1.061 0.707-1.768-8.133-3.536-10.254-0.707-5.657-5.657-15.558-9.901-22.984-15.204-29.702-42.431-54.099-72.839-67.536 0-0.707-1.768-1.414-2.476-2.121-30.055-12.729-66.122-16.265-100.773-8.133-35.006 8.486-67.889 28.641-91.227 57.636 1.061-3.536 9.901-10.254 10.255-13.083-10.254 10.961-21.215 25.459-28.641 41.016-7.779 15.558-12.022 31.47-13.79 43.138" fill="#113f67" fill-rule="nonzero" stroke="none" stroke-width="1" stroke-linecap="butt" stroke-linejoin="miter" stroke-miterlimit="10" stroke-dasharray="" stroke-dashoffset="0" font-family="none" font-weight="none" font-size="none" text-anchor="none" style="mix-blend-mode: normal" data-fill-palette-color="tertiary"></path></g><g transform="matrix(1,0,0,1,48,154.71571906354515)"><svg viewBox="0 0 224 50.5685618729097" height="50.5685618729097" width="224"><g><svg viewBox="0 0 224 50.5685618729097" height="50.5685618729097" width="224"><g><svg viewBox="0 0 224 50.5685618729097" height="50.5685618729097" width="224"><g id="textblocktransform"><svg viewBox="0 0 224 50.5685618729097" height="50.5685618729097" width="224" id="textblock"><g><svg viewBox="0 0 224 50.5685618729097" height="50.5685618729097" width="224"><g transform="matrix(1,0,0,1,0,0)"><svg width="224" viewBox="2.75 -47 209.27999877929688 47.25" height="50.5685618729097" data-palette-color="#113f67"><path d="M49.05-11.15Q49.7-11.15 50.08-10.55 50.45-9.95 50.45-8.9L50.45-8.9Q50.45-6.95 49.5-5.8L49.5-5.8Q47.1-2.9 44.65-1.33 42.2 0.25 38.85 0.25L38.85 0.25Q35.6 0.25 33.33-1.5 31.05-3.25 29-7.5L29-7.5Q27.35-10.9 26.4-12.53 25.45-14.15 24.53-14.85 23.6-15.55 22.25-15.7L22.25-15.7Q22.05-14.65 21.1-9.1L21.1-9.1Q20.7-6.6 20.6-6.05L20.6-6.05Q20.1-3 18.6-1.38 17.1 0.25 14.05 0.25L14.05 0.25Q10.7 0.25 8.13-1.73 5.55-3.7 4.15-7.23 2.75-10.75 2.75-15.25L2.75-15.25Q2.75-23.65 5.68-29.75 8.6-35.85 13.88-39.08 19.15-42.3 26.05-42.3L26.05-42.3Q30.85-42.3 34.1-40.85 37.35-39.4 38.93-36.85 40.5-34.3 40.5-31.1L40.5-31.1Q40.5-28.3 39.18-25.63 37.85-22.95 35.2-20.9 32.55-18.85 28.75-17.85L28.75-17.85Q31.15-17.2 32.45-15.75 33.75-14.3 35.05-11.5L35.05-11.5Q36.45-8.5 37.83-7.1 39.2-5.7 41-5.7L41-5.7Q42.6-5.7 44.05-6.78 45.5-7.85 47.7-10.45L47.7-10.45Q48.3-11.15 49.05-11.15L49.05-11.15ZM14-8.25L15.35-15.75Q13.65-15.75 13.03-16.55 12.4-17.35 12.4-18.35L12.4-18.35Q12.4-19.55 13.18-20.25 13.95-20.95 14.95-20.95L14.95-20.95 16.2-20.95Q17-25.85 17.7-29.4L17.7-29.4Q18.35-32.65 21.9-32.65L21.9-32.65Q24.75-32.65 24.75-30.1L24.75-30.1Q24.75-29.55 24.7-29.25L24.7-29.25 23.2-20.95Q25.9-21.1 28.13-22.25 30.35-23.4 31.68-25.45 33-27.5 33-30.1L33-30.1Q33-33.25 30.85-35.05 28.7-36.85 24.55-36.85L24.55-36.85Q19.65-36.85 15.98-34.43 12.3-32 10.25-27.23 8.2-22.45 8.2-15.6L8.2-15.6Q8.2-12.4 8.85-10.1 9.5-7.8 10.45-6.65 11.4-5.5 12.25-5.5L12.25-5.5Q12.9-5.5 13.33-6.15 13.75-6.8 14-8.25L14-8.25ZM51.55 0.25Q48.45 0.25 46.6-2 44.75-4.25 44.75-7.9L44.75-7.9Q44.75-11.9 46.6-15.48 48.45-19.05 51.52-21.23 54.6-23.4 58.05-23.4L58.05-23.4Q59.15-23.4 59.52-22.98 59.9-22.55 60.15-21.45L60.15-21.45Q61.2-21.65 62.35-21.65L62.35-21.65Q64.8-21.65 64.8-19.9L64.8-19.9Q64.8-18.85 64.05-14.9L64.05-14.9Q62.9-9.15 62.9-6.9L62.9-6.9Q62.9-6.15 63.27-5.7 63.65-5.25 64.25-5.25L64.25-5.25Q65.2-5.25 66.55-6.48 67.9-7.7 70.2-10.45L70.2-10.45Q70.8-11.15 71.55-11.15L71.55-11.15Q72.2-11.15 72.57-10.55 72.95-9.95 72.95-8.9L72.95-8.9Q72.95-6.9 72-5.8L72-5.8Q69.95-3.25 67.65-1.5 65.35 0.25 63.2 0.25L63.2 0.25Q61.55 0.25 60.17-0.88 58.8-2 58.1-3.95L58.1-3.95Q55.5 0.25 51.55 0.25L51.55 0.25ZM53.35-4.8Q54.45-4.8 55.45-6.1 56.45-7.4 56.9-9.55L56.9-9.55 58.75-18.75Q56.65-18.7 54.87-17.18 53.1-15.65 52.05-13.15 51-10.65 51-7.85L51-7.85Q51-6.3 51.62-5.55 52.25-4.8 53.35-4.8L53.35-4.8ZM97.3-11.15Q97.95-11.15 98.32-10.55 98.7-9.95 98.7-8.9L98.7-8.9Q98.7-6.9 97.75-5.8L97.75-5.8Q95.7-3.3 93.25-1.53 90.8 0.25 88.4 0.25L88.4 0.25Q84.59 0.25 82.59-4.2L82.59-4.2Q80.5-1.55 78.92-0.65 77.34 0.25 75.25 0.25L75.25 0.25Q72.2 0.25 70.22-2.02 68.25-4.3 68.25-7.95L68.25-7.95Q68.25-11.95 69.95-15.38 71.65-18.8 74.62-20.98 77.59-23.15 81.3-23.55L81.3-23.55Q82.25-33.25 84.92-40.13 87.59-47 91.95-47L91.95-47Q94.09-47 95.52-45.05 96.95-43.1 96.95-39.15L96.95-39.15Q96.95-33.55 94.2-26.05 91.45-18.55 86.84-10.65L86.84-10.65Q87.05-7.75 87.72-6.5 88.4-5.25 89.45-5.25L89.45-5.25Q90.8-5.25 92.2-6.45 93.59-7.65 95.95-10.45L95.95-10.45Q96.55-11.15 97.3-11.15L97.3-11.15ZM91.4-42.1Q90.45-42.1 89.5-38.73 88.55-35.35 87.87-29.9 87.2-24.45 86.9-18.5L86.9-18.5Q92.5-30.7 92.5-38.1L92.5-38.1Q92.5-40 92.17-41.05 91.84-42.1 91.4-42.1L91.4-42.1ZM77-4.8Q77.95-4.8 78.9-5.58 79.84-6.35 81.3-8.45L81.3-8.45Q80.8-11.15 80.8-14.5L80.8-14.5Q80.8-15.7 80.9-18.4L80.9-18.4Q78.15-17.55 76.32-14.73 74.5-11.9 74.5-8.45L74.5-8.45Q74.5-4.8 77-4.8L77-4.8ZM100.29 0.25Q97.19 0.25 95.34-2 93.49-4.25 93.49-7.9L93.49-7.9Q93.49-11.9 95.34-15.48 97.19-19.05 100.27-21.23 103.34-23.4 106.79-23.4L106.79-23.4Q107.89-23.4 108.27-22.98 108.64-22.55 108.89-21.45L108.89-21.45Q109.94-21.65 111.09-21.65L111.09-21.65Q113.54-21.65 113.54-19.9L113.54-19.9Q113.54-18.85 112.79-14.9L112.79-14.9Q111.64-9.15 111.64-6.9L111.64-6.9Q111.64-6.15 112.02-5.7 112.39-5.25 112.99-5.25L112.99-5.25Q113.94-5.25 115.29-6.48 116.64-7.7 118.94-10.45L118.94-10.45Q119.54-11.15 120.29-11.15L120.29-11.15Q120.94-11.15 121.32-10.55 121.69-9.95 121.69-8.9L121.69-8.9Q121.69-6.9 120.74-5.8L120.74-5.8Q118.69-3.25 116.39-1.5 114.09 0.25 111.94 0.25L111.94 0.25Q110.29 0.25 108.92-0.88 107.54-2 106.84-3.95L106.84-3.95Q104.24 0.25 100.29 0.25L100.29 0.25ZM102.09-4.8Q103.19-4.8 104.19-6.1 105.19-7.4 105.64-9.55L105.64-9.55 107.49-18.75Q105.39-18.7 103.62-17.18 101.84-15.65 100.79-13.15 99.74-10.65 99.74-7.85L99.74-7.85Q99.74-6.3 100.37-5.55 100.99-4.8 102.09-4.8L102.09-4.8ZM121.19 0.25Q119.29 0.25 118.52-1.75 117.74-3.75 117.74-8.15L117.74-8.15Q117.74-14.65 119.59-20.5L119.59-20.5Q120.04-21.95 121.07-22.63 122.09-23.3 123.94-23.3L123.94-23.3Q124.94-23.3 125.34-23.05 125.74-22.8 125.74-22.1L125.74-22.1Q125.74-21.3 124.99-18.5L124.99-18.5Q124.49-16.5 124.19-15 123.89-13.5 123.69-11.3L123.69-11.3Q125.34-15.6 127.39-18.3 129.44-21 131.42-22.15 133.39-23.3 135.04-23.3L135.04-23.3Q138.29-23.3 138.29-20.05L138.29-20.05Q138.29-18.1 137.19-13L137.19-13Q136.24-8.65 136.24-7.25L136.24-7.25Q136.24-5.25 137.69-5.25L137.69-5.25Q138.69-5.25 140.06-6.48 141.44-7.7 143.74-10.45L143.74-10.45Q144.34-11.15 145.09-11.15L145.09-11.15Q145.74-11.15 146.12-10.55 146.49-9.95 146.49-8.9L146.49-8.9Q146.49-6.9 145.54-5.8L145.54-5.8Q143.39-3.15 140.92-1.45 138.44 0.25 135.29 0.25L135.29 0.25Q132.74 0.25 131.44-1.23 130.14-2.7 130.14-5.5L130.14-5.5Q130.14-6.9 130.84-10.5L130.84-10.5Q131.49-13.65 131.49-14.85L131.49-14.85Q131.49-15.65 130.94-15.65L130.94-15.65Q130.29-15.65 129.12-13.98 127.94-12.3 126.72-9.55 125.49-6.8 124.74-3.75L124.74-3.75Q124.19-1.4 123.47-0.58 122.74 0.25 121.19 0.25L121.19 0.25ZM164.74-11.15Q165.39-11.15 165.76-10.55 166.14-9.95 166.14-8.9L166.14-8.9Q166.14-6.9 165.19-5.8L165.19-5.8Q163.04-3.15 160.49-1.45 157.94 0.25 154.64 0.25L154.64 0.25Q144.44 0.25 144.44-14.1L144.44-14.1Q144.44-16.3 144.59-18.55L144.59-18.55 142.64-18.55Q141.14-18.55 140.61-19.1 140.09-19.65 140.09-20.85L140.09-20.85Q140.09-23.65 142.34-23.65L142.34-23.65 145.19-23.65Q146.04-29.15 147.79-33.7 149.54-38.25 152.01-40.95 154.49-43.65 157.34-43.65L157.34-43.65Q159.44-43.65 160.64-41.8 161.84-39.95 161.84-37.15L161.84-37.15Q161.84-29.4 155.34-23.65L155.34-23.65 160.94-23.65Q161.74-23.65 162.09-23.3 162.44-22.95 162.44-22L162.44-22Q162.44-18.55 156.79-18.55L156.79-18.55 150.69-18.55Q150.59-16.05 150.59-14.65L150.59-14.65Q150.59-9.45 151.81-7.35 153.04-5.25 155.69-5.25L155.69-5.25Q157.84-5.25 159.49-6.55 161.14-7.85 163.39-10.45L163.39-10.45Q163.99-11.15 164.74-11.15L164.74-11.15ZM155.99-38.85Q155.24-38.85 154.31-36.98 153.39-35.1 152.56-31.78 151.74-28.45 151.19-24.4L151.19-24.4Q154.14-26.95 155.61-30.13 157.09-33.3 157.09-35.9L157.09-35.9Q157.09-38.85 155.99-38.85L155.99-38.85ZM184.39-11.15Q185.04-11.15 185.41-10.55 185.79-9.95 185.79-8.9L185.79-8.9Q185.79-6.9 184.84-5.8L184.84-5.8Q182.99-3.55 179.61-1.65 176.24 0.25 172.39 0.25L172.39 0.25Q167.14 0.25 164.24-2.6 161.34-5.45 161.34-10.4L161.34-10.4Q161.34-13.85 162.79-16.82 164.24-19.8 166.81-21.55 169.39-23.3 172.64-23.3L172.64-23.3Q175.54-23.3 177.29-21.58 179.04-19.85 179.04-16.9L179.04-16.9Q179.04-13.45 176.56-10.98 174.09-8.5 168.19-7.05L168.19-7.05Q169.44-4.75 172.94-4.75L172.94-4.75Q175.19-4.75 178.06-6.33 180.94-7.9 183.04-10.45L183.04-10.45Q183.64-11.15 184.39-11.15L184.39-11.15ZM171.79-18.4Q169.94-18.4 168.66-16.25 167.39-14.1 167.39-11.05L167.39-11.05 167.39-10.95Q170.34-11.65 172.04-13.05 173.74-14.45 173.74-16.3L173.74-16.3Q173.74-17.25 173.21-17.82 172.69-18.4 171.79-18.4L171.79-18.4ZM210.63-11.15Q211.28-11.15 211.66-10.55 212.03-9.95 212.03-8.9L212.03-8.9Q212.03-6.9 211.08-5.8L211.08-5.8Q208.83-3.05 206.53-1.4 204.23 0.25 201.08 0.25L201.08 0.25Q197.23 0.25 194.88-1.95 192.53-4.15 192.53-7.8L192.53-7.8Q192.53-9.75 194.53-10.6L194.53-10.6Q196.73-11.55 197.68-12.63 198.63-13.7 198.63-15.25L198.63-15.25Q198.63-16.15 198.26-16.6 197.88-17.05 197.33-17.05L197.33-17.05Q195.98-17.05 194.36-15.1 192.73-13.15 191.33-10.08 189.93-7 189.13-3.75L189.13-3.75Q188.58-1.4 187.86-0.58 187.13 0.25 185.58 0.25L185.58 0.25Q184.03 0.25 183.31-0.88 182.58-2 182.33-4.35 182.08-6.7 182.08-11.25L182.08-11.25Q182.08-18.95 183.66-27.3 185.23-35.65 188.31-41.33 191.38-47 195.68-47L195.68-47Q197.98-47 199.41-45.03 200.83-43.05 200.83-39.9L200.83-39.9Q200.83-34.85 197.88-29.43 194.93-24 188.28-16.75L188.28-16.75Q188.13-14.15 188.13-11.4L188.13-11.4Q190.53-17.65 193.63-20.48 196.73-23.3 199.43-23.3L199.43-23.3Q201.93-23.3 203.46-21.6 204.98-19.9 204.98-17.4L204.98-17.4Q204.98-14.65 203.58-12.35 202.18-10.05 198.78-8.25L198.78-8.25Q198.98-6.9 200.01-6.08 201.03-5.25 202.48-5.25L202.48-5.25Q204.03-5.25 205.48-6.45 206.93-7.65 209.28-10.45L209.28-10.45Q209.88-11.15 210.63-11.15L210.63-11.15ZM194.63-42.05Q193.73-42.05 192.63-39.48 191.53-36.9 190.51-32.52 189.48-28.15 188.83-23L188.83-23Q191.93-26.65 193.96-30.95 195.98-35.25 195.98-38.75L195.98-38.75Q195.98-40.35 195.63-41.2 195.28-42.05 194.63-42.05L194.63-42.05Z" opacity="1" transform="matrix(1,0,0,1,0,0)" fill="#113f67" class="wordmark-text-0" data-fill-palette-color="primary" id="text-0"></path></svg></g></svg></g></svg></g></svg></g><g></g></svg></g></svg></g></svg></g><defs></defs></svg><rect width="320" height="360" fill="none" stroke="none" visibility="hidden"></rect></g></svg>