<?xml version="1.0" standalone="no"?>
<!DOCTYPE svg PUBLIC "-//W3C//DTD SVG 20010904//EN"
 "http://www.w3.org/TR/2001/REC-SVG-20010904/DTD/svg10.dtd">
<svg version="1.0" xmlns="http://www.w3.org/2000/svg"
 width="360.000000pt" height="360.000000pt" viewBox="0 0 360.000000 360.000000"
 preserveAspectRatio="xMidYMid meet">

<g transform="translate(0.000000,360.000000) scale(0.100000,-0.100000)"
fill="#000000" stroke="none">
<path d="M2105 3468 c-49 -12 -106 -21 -125 -21 -19 1 -102 2 -185 4 -156 3
-186 -3 -331 -62 -27 -11 -45 -9 -137 14 -426 107 -738 16 -869 -253 -52 -108
-60 -156 -60 -357 0 -225 23 -364 107 -659 131 -455 280 -688 450 -702 71 -6
115 3 158 33 31 21 37 22 48 8 20 -23 99 -59 157 -72 73 -15 167 -14 235 4 32
8 60 15 62 15 3 0 5 -37 5 -82 0 -163 29 -329 74 -432 70 -158 211 -216 406
-167 142 36 216 83 282 178 60 89 104 265 115 465 l6 118 62 0 c79 0 211 25
272 51 75 32 170 105 198 153 34 58 34 124 0 164 -47 56 -71 59 -262 36 -29
-4 -53 -5 -53 -3 0 3 25 52 55 109 118 224 204 458 250 680 25 118 26 336 2
405 -35 101 -169 230 -312 301 -186 92 -408 118 -610 72z m415 -75 c110 -26
237 -93 318 -168 40 -37 85 -88 100 -114 26 -44 27 -51 27 -191 0 -160 -11
-228 -61 -397 -60 -199 -162 -432 -264 -599 -22 -36 -40 -70 -40 -74 0 -23
107 -27 236 -9 97 14 131 7 146 -27 16 -35 -9 -80 -71 -127 -102 -78 -220
-111 -373 -105 l-85 3 -12 -95 c-48 -390 -68 -480 -117 -552 -62 -89 -185
-142 -334 -143 -86 0 -100 3 -141 27 -73 43 -131 132 -150 231 -5 28 -14 148
-19 265 -5 118 -11 216 -13 219 -3 2 -31 -11 -63 -29 -58 -32 -61 -33 -179
-33 -128 0 -173 14 -219 64 -43 48 -8 110 77 131 132 34 152 42 184 78 l34 37
-48 11 c-26 7 -60 16 -74 22 -30 12 -43 0 -194 -173 -94 -107 -108 -119 -161
-135 -170 -51 -342 220 -479 755 -70 272 -89 390 -88 535 3 260 84 425 253
514 160 85 389 88 651 10 l86 -26 49 25 c89 45 160 60 279 60 61 0 129 -5 152
-10 33 -8 57 -7 120 9 161 39 336 43 473 11z"/>
<path d="M2165 3321 l-40 -6 72 -43 c142 -84 279 -239 356 -401 48 -103 55
-163 34 -316 -13 -94 -13 -130 -3 -247 14 -154 7 -244 -24 -315 -11 -25 -20
-51 -20 -57 1 -33 138 230 205 393 124 303 178 629 121 738 -8 17 -46 58 -83
92 -80 74 -197 135 -301 156 -73 15 -238 18 -317 6z"/>
<path d="M909 3291 c-234 -32 -354 -182 -366 -456 -6 -144 8 -241 72 -501 110
-445 257 -744 367 -744 37 0 65 26 220 200 l76 85 -30 35 c-17 19 -44 64 -62
100 l-31 65 2 305 c2 348 6 397 38 519 30 112 73 203 131 277 l44 58 -42 13
c-121 36 -320 57 -419 44z"/>
<path d="M1618 3281 c-172 -55 -288 -196 -344 -419 -13 -52 -24 -110 -24 -129
0 -30 3 -34 18 -28 74 31 135 47 193 52 91 8 165 -25 202 -88 37 -63 60 -200
58 -340 -1 -129 -10 -167 -85 -354 l-44 -110 44 -11 c25 -6 56 -22 71 -35 49
-45 53 -70 53 -317 0 -308 12 -429 51 -509 32 -66 61 -93 122 -113 75 -24 236
19 297 80 64 64 81 141 134 616 25 215 34 242 87 266 16 7 29 17 29 21 0 5
-13 25 -29 45 -54 67 -237 440 -255 519 -52 230 26 343 237 343 37 0 67 2 67
5 0 16 -78 158 -115 211 -81 113 -227 227 -345 269 -134 48 -319 59 -422 26z"/>
<path d="M2363 2680 c-106 -25 -126 -113 -66 -285 27 -76 173 -365 184 -365 4
0 13 25 20 55 10 43 9 86 -1 205 -10 121 -10 173 0 266 11 98 10 118 -1 125
-17 10 -91 10 -136 -1z m71 -26 c40 -15 -9 -84 -60 -84 -27 0 -67 35 -61 53 9
28 81 46 121 31z"/>
<path d="M1424 2669 c-27 -6 -79 -24 -113 -42 l-64 -32 -5 -175 c-9 -315 -10
-309 19 -370 42 -90 121 -154 211 -170 37 -7 38 -7 48 30 5 20 30 85 54 143
25 58 50 134 57 167 20 104 -5 348 -42 407 -24 40 -88 56 -165 42z m141 -49
c47 -39 -25 -98 -90 -74 -8 4 -23 20 -32 37 -14 29 -14 31 3 45 22 16 96 11
119 -8z"/>
<path d="M2481 1754 c-12 -15 -21 -39 -21 -55 0 -25 4 -28 46 -35 98 -14 232
13 319 66 l50 31 -40 -7 c-77 -14 -218 -9 -259 9 -53 23 -71 21 -95 -9z"/>
<path d="M1550 1716 c-53 -66 -95 -90 -192 -115 l-73 -18 30 -14 c17 -7 66
-13 115 -13 76 -1 91 3 139 29 64 35 115 98 105 129 -10 32 -35 56 -58 56 -13
0 -38 -20 -66 -54z"/>
<path d="M138 702 l-58 -3 0 -244 0 -245 30 0 30 0 0 100 0 100 60 0 c111 0
180 58 180 150 0 108 -73 151 -242 142z m127 -56 c18 -8 38 -23 44 -34 17 -33
13 -87 -10 -115 -23 -31 -88 -51 -130 -42 l-29 7 0 92 c0 51 3 96 7 99 11 12
82 8 118 -7z"/>
<path d="M2445 692 c-71 -34 -95 -113 -56 -179 13 -21 42 -42 88 -63 86 -41
113 -65 113 -102 0 -83 -79 -116 -183 -76 -29 11 -46 1 -47 -29 0 -31 152 -45
215 -19 46 20 75 69 75 127 0 63 -27 94 -116 135 -105 48 -131 98 -78 151 22
22 31 25 77 20 29 -2 59 -8 69 -11 11 -5 18 -1 23 14 10 32 -6 42 -77 46 -48
4 -72 0 -103 -14z"/>
<path d="M2840 683 c-82 -43 -114 -100 -119 -210 -6 -152 52 -238 177 -263 31
-7 99 -25 151 -41 95 -29 110 -28 111 8 0 12 -6 15 -88 33 l-53 12 44 28 c67
42 92 101 92 215 0 81 -3 95 -28 138 -39 66 -91 98 -169 104 -55 4 -70 1 -118
-24z m153 -32 c67 -26 115 -131 103 -224 -13 -95 -61 -158 -132 -171 -138 -26
-231 157 -159 311 37 80 111 113 188 84z"/>
<path d="M3250 455 l0 -245 135 0 135 0 0 25 0 25 -105 0 -105 0 0 220 0 220
-30 0 -30 0 0 -245z"/>
<path d="M1173 652 c-6 -4 -13 -25 -15 -47 -3 -35 -6 -40 -30 -43 -20 -2 -28
-9 -28 -22 0 -13 8 -20 28 -22 l27 -3 5 -131 c6 -159 14 -174 92 -174 45 0 48
2 48 25 0 21 -4 24 -22 20 -13 -3 -32 1 -43 9 -18 13 -20 26 -20 133 l0 118
48 3 c38 3 47 7 47 22 0 15 -9 19 -47 22 l-48 3 0 48 c0 47 -12 58 -42 39z"/>
<path d="M525 556 c-116 -50 -134 -254 -30 -322 67 -44 164 -34 220 22 60 59
68 174 18 251 -36 55 -139 79 -208 49z m115 -41 c40 -20 60 -63 60 -125 0 -84
-42 -140 -105 -140 -63 0 -105 56 -105 140 0 64 22 107 63 125 41 18 52 18 87
0z"/>
<path d="M888 554 c-34 -18 -48 -43 -48 -87 0 -40 23 -64 97 -101 55 -27 71
-53 53 -86 -14 -27 -55 -35 -104 -22 -31 8 -43 8 -48 -1 -22 -34 2 -47 92 -47
65 0 96 18 117 67 21 52 -5 99 -76 134 -30 14 -60 34 -67 43 -31 43 28 88 88
67 31 -11 47 -4 48 21 0 28 -107 37 -152 12z"/>
<path d="M1441 553 c-93 -47 -117 -212 -42 -292 52 -56 143 -60 199 -9 l25 23
-6 -55 c-5 -45 -12 -60 -38 -83 -28 -26 -36 -28 -88 -24 -31 3 -65 6 -76 8
-14 3 -21 -2 -23 -18 -3 -18 4 -24 40 -34 56 -15 145 -5 177 19 59 44 66 70
69 280 l4 192 -26 0 c-19 0 -26 -5 -26 -20 0 -26 -8 -25 -37 1 -31 30 -106 36
-152 12z m145 -56 c55 -48 41 -197 -22 -226 -53 -24 -113 -2 -134 49 -26 63
-6 164 37 189 32 19 90 13 119 -12z"/>
<path d="M1876 545 c-14 -13 -26 -29 -26 -35 0 -5 -4 -10 -10 -10 -5 0 -10 14
-10 30 0 25 -4 30 -25 30 l-25 0 0 -175 0 -175 30 0 30 0 0 98 c0 147 24 202
87 202 19 0 23 5 23 30 0 25 -4 30 -24 30 -12 0 -35 -11 -50 -25z"/>
<path d="M2085 556 c-118 -52 -127 -267 -15 -327 38 -21 140 -26 184 -10 18 8
23 15 19 31 -4 15 -11 19 -22 15 -35 -15 -90 -17 -126 -5 -39 13 -75 59 -75
98 0 22 2 22 126 22 l127 0 -6 45 c-9 61 -31 102 -70 125 -37 23 -98 25 -142
6z m119 -48 c15 -13 29 -38 32 -55 l7 -33 -98 0 -97 0 6 28 c9 38 60 82 96 82
16 0 40 -10 54 -22z"/>
</g>
</svg>
